<svg xmlns="http://www.w3.org/2000/svg" viewBox="0 0 493.728 493.728">
<path fill="currentColor" d="M404.936,92.136c-1.768-0.168-39.52-2.968-39.52-2.968S339.176,63,336.304,60.12
	c-2.88-2.896-8.504-2.032-10.696-1.368c-0.312,0.088-5.72,1.776-14.672,4.536c-8.768-25.336-24.216-48.616-51.408-48.616
	c-0.752,0-1.528,0.032-2.312,0.08C249.488,4.488,239.904,0,231.624,0C168.272,0,138,79.608,128.512,120.064
	c-24.624,7.648-42.128,13.104-44.336,13.824c-13.768,4.336-14.192,4.768-15.976,17.776c-1.376,9.848-37.336,289.312-37.336,289.312
	l280.176,52.752l151.824-33.016c0,0-53.288-362.088-53.624-364.576C408.904,93.656,406.728,92.28,404.936,92.136z M255.136,77.904
	c0,0.952-0.016,1.848-0.016,2.752c-15.424,4.808-32.16,10.008-48.968,15.248c9.432-36.56,27.096-54.24,42.56-60.904
	C252.592,44.808,255.136,58.904,255.136,77.904z M229.872,17.088c2.768,0,5.504,0.928,8.144,2.76
	c-20.312,9.592-42.064,33.792-51.264,82.088c-13.432,4.176-26.552,8.272-38.704,12.048
	C158.816,77.128,184.368,17.088,229.872,17.088z M240.792,232.384c0,0-16.4-8.792-36.488-8.792
	c-29.488,0-30.976,18.592-30.976,23.264c0,25.56,66.296,35.36,66.296,95.224c0,47.104-29.712,77.424-69.808,77.424
	c-48.096,0-72.704-30.088-72.704-30.088l12.872-42.76c0,0,25.28,21.832,46.64,21.832c13.92,0,19.592-11.04,19.592-19.096
	c0-33.344-54.392-34.832-54.392-89.624c0-46.088,32.928-90.728,99.424-90.728c25.592,0,38.264,7.384,38.264,7.384L240.792,232.384z
	 M271.744,75.488c0-1.688,0.016-3.336,0.016-5.152c0-15.728-2.184-28.408-5.672-38.456c14.016,1.752,23.352,17.784,29.36,36.224
	C288.416,70.312,280.416,72.792,271.744,75.488z"/>
</svg>